<svg xmlns="http://www.w3.org/2000/svg" width="32" height="32" viewBox="0 0 32 32"><defs><style>.cls-1{fill:#009adf;}</style></defs><title>03</title><g id="_03" data-name="03"><path class="cls-1" d="M15,27.25H10.75V25a.75.75,0,0,0-.75-.75H8.75V4.5a4.25,4.25,0,0,0-8.5,0v10A4.255,4.255,0,0,0,4.5,18.75H7.25v5.5H6a.75.75,0,0,0-.75.75v2.25H1A.75.75,0,0,0,.25,28v3a.75.75,0,0,0,.75.75H15a.75.75,0,0,0,.75-.75V28A.75.75,0,0,0,15,27.25Zm-10.5-10A2.753,2.753,0,0,1,1.75,14.5V4.5a2.75,2.75,0,0,1,5.5,0V17.25Zm9.75,13H1.75v-1.5H6A.75.75,0,0,0,6.75,28V25.75h2.5v1.5H9a.75.75,0,0,0,0,1.5h5.25Zm15.5-7.883V9.75H30a.75.75,0,0,0,0-1.5h-.364l-.628-3.764a4.535,4.535,0,0,0-1.949-3.016L25.416.376a.746.746,0,0,0-.221-.1L25.182.272c-.014,0-.028,0-.042,0A.744.744,0,0,0,25,.25H16a.742.742,0,0,0-.14.021c-.014,0-.028,0-.042,0L15.8.279a.746.746,0,0,0-.221.1L13.941,1.471a4.539,4.539,0,0,0-1.95,3.016L11.364,8.25H11a.75.75,0,0,0,0,1.5h.25v7.5H11a.75.75,0,0,0,0,1.5h7.708a1.5,1.5,0,1,0,0-1.5H12.75V9.75h15.5v1.5H25a.75.75,0,0,0-.671.415l-.793,1.585H17.464l-.793-1.585A.75.75,0,0,0,16,11.25H15a.75.75,0,0,0,0,1.5h.536l.793,1.585A.75.75,0,0,0,17,14.75h7a.75.75,0,0,0,.671-.415l.793-1.585H28.25V22.4c-5.26,1.127-11.45,1.141-15.5.039V21a.75.75,0,0,0-1.5,0v2a.75.75,0,0,0,.527.716,28.667,28.667,0,0,0,8.188,1.032,41.627,41.627,0,0,0,9.071-.99A1.247,1.247,0,0,1,30.25,25v3.25H18a.75.75,0,0,0,0,1.5h1.25V31a.75.75,0,0,0,1.5,0V29.75h6.5V31a.75.75,0,0,0,1.5,0V29.75H31a.75.75,0,0,0,.75-.75V25A2.745,2.745,0,0,0,29.75,22.367ZM24.04,1.75l-.392,1.568a1.229,1.229,0,0,1-1.193.932H18.546a1.229,1.229,0,0,1-1.193-.931L16.96,1.75ZM13.471,4.733a3.034,3.034,0,0,1,1.3-2.015l.757-.5L15.9,3.683A2.726,2.726,0,0,0,18.546,5.75h3.908A2.726,2.726,0,0,0,25.1,3.682l.367-1.468.757.5a3.029,3.029,0,0,1,1.3,2.014l.586,3.517H12.885Z"/></g></svg>