<svg id="_01" data-name="01" xmlns="http://www.w3.org/2000/svg" width="32" height="32" viewBox="0 0 32 32"><defs><style>.cls-1{fill:#009adf;}</style></defs><title>01</title><path class="cls-1" d="M3.763,17.216a.773.773,0,0,0,.115-.009c.013,0,.023-.011.037-.013a7.119,7.119,0,0,0,2.524-.929A59.98,59.98,0,0,0,22.027,3.8a.75.75,0,1,0-1.118-1c-.378.423-.769.832-1.159,1.243V3.5a1.75,1.75,0,0,1,3.5,0V5a.75.75,0,0,0,.75.75h1.126l-.071.462a.75.75,0,0,0,.627.855.768.768,0,0,0,.115.009.75.75,0,0,0,.74-.636l.106-.69H27a.75.75,0,0,0,0-1.5H24.75V3.5a3.25,3.25,0,0,0-6.5,0v.75H9.75V3.5a3.25,3.25,0,0,0-6.5,0v.75H1a.75.75,0,0,0,0,1.5h.357l.4,2.632A11.566,11.566,0,0,0,.25,13.519a3.668,3.668,0,0,0,2.056,3.5,3.068,3.068,0,0,0,1.172.226c.088,0,.175-.021.263-.028C3.749,17.212,3.756,17.216,3.763,17.216ZM4.75,3.5a1.75,1.75,0,0,1,3.5,0v.75H4.75ZM18.062,5.75a58.4,58.4,0,0,1-12.352,9.2,8.033,8.033,0,0,1-1.326.612L2.874,5.75ZM1.75,13.54a8.1,8.1,0,0,1,.443-2.352l.683,4.438h0A2.2,2.2,0,0,1,1.75,13.54ZM18.75,31a.75.75,0,0,1-.75.75H5a.75.75,0,0,1,0-1.5h.126l-1.631-10.6a.75.75,0,1,1,1.482-.229L6.643,30.25H18A.75.75,0,0,1,18.75,31ZM31,8.25H27a.75.75,0,0,0-.75.75v.959L21.237,8.289A.75.75,0,0,0,20.25,9V31a.75.75,0,0,0,.987.711l5.013-1.671V31a.75.75,0,0,0,.75.75h4a.75.75,0,0,0,.75-.75V9A.75.75,0,0,0,31,8.25ZM21.75,29.959V10.041l4.5,1.5V20.25H24a.75.75,0,0,0,0,1.5h2.25v1.5H24a.75.75,0,0,0,0,1.5h2.25v3.709Zm8.5.291h-2.5V9.75h2.5Z"/></svg>