<svg xmlns="http://www.w3.org/2000/svg" width="32" height="32" viewBox="0 0 32 32"><defs><style>.cls-1{fill:#009adf;}</style></defs><title>02</title><g id="_02" data-name="02"><path class="cls-1" d="M21,7.75a.75.75,0,0,0,.736-.893l-.583-3a.75.75,0,0,0-.736-.607H15.708a.75.75,0,0,0-.73.578l-.708,3A.75.75,0,0,0,15,7.75Zm-4.7-3h3.5l.291,1.5H15.948ZM29.53,13.47l-1.78-1.78V9A.75.75,0,0,0,27,8.25H25.38L23.993,2.012A2.237,2.237,0,0,0,21.8.25H14.171a2.247,2.247,0,0,0-2.183,1.7l-.324,1.3H10.75V1A.75.75,0,0,0,10,.25H5A.75.75,0,0,0,4.25,1V3.878L2.893,7.951A12.507,12.507,0,0,0,2.25,11.91V29A2.753,2.753,0,0,0,5,31.75H18a.75.75,0,0,0,0-1.5H5A1.251,1.251,0,0,1,3.75,29V11.91a11.011,11.011,0,0,1,.565-3.485L5.541,4.75H12.25a.75.75,0,0,0,.728-.568l.466-1.863a.749.749,0,0,1,.728-.568H21.8a.744.744,0,0,1,.731.587L23.843,8.25H23a.75.75,0,0,0-.75.75v.25H6a.75.75,0,0,0,0,1.5H22.25v.939L20.689,13.25H7a.75.75,0,0,0-.75.75V27a.75.75,0,0,0,.75.75H18a.75.75,0,0,0,0-1.5H7.75V14.75h12.5V31a.75.75,0,0,0,.75.75h8a.75.75,0,0,0,.75-.75V14A.75.75,0,0,0,29.53,13.47ZM5.75,3.25V1.75h3.5v1.5Zm18,6.5h2.5v1.5h-2.5Zm-2,20.5V14.311l1.561-1.561h3.379l1.5,1.5H24a.75.75,0,0,0,0,1.5h4.25v1.5H24a.75.75,0,0,0-.75.75V28a.75.75,0,0,0,.75.75h4.25v1.5Zm6.5-3h-3.5v-8.5h3.5Z"/></g></svg>