<svg width="69" height="69" viewBox="0 0 69 69" fill="none" xmlns="http://www.w3.org/2000/svg">
<g clip-path="url(#clip0)">
<path d="M12.5 18.5L12 26.5L8.5 23.5H6L4 27L11 45L61 44.5L66.5 26L65 24.5L62 23.5L59 26V20L55 17.5H15L12.5 18.5Z" fill="white" stroke="white"/>
<path d="M63.0449 22.6406C62.0625 22.6383 61.1032 22.938 60.2969 23.4991V21.5625C60.2953 20.1333 59.7268 18.7631 58.7162 17.7525C57.7056 16.7419 56.3354 16.1735 54.9062 16.1719H16.0938C14.6646 16.1735 13.2944 16.7419 12.2838 17.7525C11.2732 18.7631 10.7047 20.1333 10.7031 21.5625V23.4991C9.9828 22.9989 9.13931 22.7053 8.26405 22.6501C7.38878 22.595 6.51511 22.7804 5.7377 23.1863C4.96029 23.5922 4.30877 24.2031 3.85373 24.9528C3.39869 25.7025 3.15749 26.5625 3.15625 27.4395V27.4634C3.15617 27.9489 3.22983 28.4315 3.37472 28.8948L7.6503 42.5767C7.98317 43.6537 8.64679 44.5985 9.54698 45.277C10.4472 45.9556 11.5382 46.3334 12.6653 46.3568L11.7959 51.5728C11.7702 51.7272 11.7784 51.8854 11.82 52.0364C11.8616 52.1873 11.9356 52.3274 12.0368 52.4469C12.138 52.5663 12.264 52.6623 12.4061 52.7282C12.5481 52.794 12.7028 52.8281 12.8594 52.8281H15.0156C15.1931 52.8281 15.3679 52.7843 15.5243 52.7006C15.6808 52.6168 15.8142 52.4957 15.9127 52.348L19.9051 46.3594H51.0949L55.0873 52.348C55.1858 52.4957 55.3192 52.6168 55.4757 52.7006C55.6321 52.7843 55.8069 52.8281 55.9844 52.8281H58.1406C58.2972 52.8281 58.4519 52.794 58.5939 52.7282C58.736 52.6623 58.862 52.5663 58.9632 52.4469C59.0644 52.3274 59.1384 52.1873 59.18 52.0364C59.2216 51.8854 59.2298 51.7272 59.2041 51.5728L58.3347 46.3568C59.4618 46.3334 60.5528 45.9556 61.453 45.277C62.3532 44.5985 63.0168 43.6537 63.3497 42.5767L67.6253 28.8948C67.7702 28.4315 67.8438 27.9489 67.8438 27.4634V27.4395C67.8423 26.1672 67.3363 24.9474 66.4366 24.0478C65.537 23.1481 64.3172 22.6421 63.0449 22.6406ZM16.0938 18.3281H54.9062C55.7638 18.3291 56.5859 18.6702 57.1922 19.2765C57.7986 19.8829 58.1396 20.705 58.1406 21.5625V27.0605L56.2805 33.1061C55.8834 32.538 55.3551 32.0741 54.7405 31.7537C54.1259 31.4333 53.4431 31.2659 52.75 31.2656H38.7344C38.1221 31.2655 37.5168 31.3961 36.9591 31.6487C36.4013 31.9013 35.9039 32.27 35.5 32.7302C35.0961 32.27 34.5987 31.9013 34.0409 31.6487C33.4832 31.3961 32.8779 31.2655 32.2656 31.2656H18.25C17.5569 31.2659 16.8741 31.4333 16.2595 31.7537C15.6449 32.0741 15.1166 32.538 14.7195 33.1061L12.8594 27.0605V21.5625C12.8604 20.705 13.2014 19.8829 13.8078 19.2765C14.4141 18.6702 15.2362 18.3291 16.0938 18.3281ZM34.4219 36.6562H16.0938V35.5781C16.0944 35.0065 16.3218 34.4584 16.726 34.0541C17.1303 33.6499 17.6783 33.4225 18.25 33.4219H32.2656C32.8373 33.4225 33.3854 33.6499 33.7896 34.0541C34.1938 34.4584 34.4212 35.0065 34.4219 35.5781V36.6562ZM54.9062 36.6562H36.5781V35.5781C36.5788 35.0065 36.8062 34.4584 37.2104 34.0541C37.6146 33.6499 38.1627 33.4225 38.7344 33.4219H52.75C53.3217 33.4225 53.8697 33.6499 54.274 34.0541C54.6782 34.4584 54.9056 35.0065 54.9062 35.5781V36.6562ZM14.4387 50.6719H14.1321L14.8508 46.3594H17.3136L14.4387 50.6719ZM56.5613 50.6719L53.6864 46.3594H56.1492L56.8679 50.6719H56.5613ZM65.6875 27.4634C65.6875 27.7307 65.647 27.9965 65.5672 28.2516L61.2916 41.9335C61.088 42.5925 60.6781 43.1688 60.1223 43.5774C59.5666 43.986 58.8943 44.2053 58.2045 44.2031H12.7955C12.1057 44.2053 11.4334 43.986 10.8777 43.5774C10.3219 43.1688 9.91203 42.5925 9.70837 41.9335L5.43279 28.2516C5.35302 27.9965 5.31246 27.7307 5.3125 27.4634V27.4395C5.3125 26.8067 5.53955 26.1949 5.95238 25.7154C6.36521 25.2359 6.9364 24.9204 7.56214 24.8263C8.18787 24.7322 8.82659 24.8657 9.3622 25.2026C9.89781 25.5396 10.2947 26.0575 10.4808 26.6623L13.9852 38.0514C14.053 38.2718 14.1897 38.4646 14.3751 38.6016C14.5606 38.7386 14.7851 38.8125 15.0156 38.8125H55.9844C56.2149 38.8125 56.4394 38.7386 56.6249 38.6016C56.8103 38.4646 56.947 38.2718 57.0148 38.0514L60.5192 26.6623C60.7053 26.0575 61.1022 25.5396 61.6378 25.2026C62.1734 24.8657 62.8121 24.7322 63.4379 24.8263C64.0636 24.9204 64.6348 25.2359 65.0476 25.7154C65.4604 26.1949 65.6875 26.8067 65.6875 27.4395V27.4634Z" fill="black"/>
<path d="M21.4844 23.7188H19.3281V25.875H21.4844V23.7188Z" fill="black"/>
<path d="M29.0312 23.7188H26.875V25.875H29.0312V23.7188Z" fill="black"/>
<path d="M36.5781 23.7188H34.4219V25.875H36.5781V23.7188Z" fill="black"/>
<path d="M44.125 23.7188H41.9688V25.875H44.125V23.7188Z" fill="black"/>
<path d="M51.6719 23.7188H49.5156V25.875H51.6719V23.7188Z" fill="black"/>
</g>
<defs>
<clipPath id="clip0">
<rect width="69" height="69" fill="white"/>
</clipPath>
</defs>
</svg>
