<svg width="69" height="69" viewBox="0 0 69 69" fill="none" xmlns="http://www.w3.org/2000/svg">
<g clip-path="url(#clip0)">
<path d="M22.3623 26.3333H41.5362L49.3478 32.7246V45.1522L42.9565 51.8985H22.3623V26.3333Z" fill="white"/>
<path d="M60 22.362V19.4886H24.7808V16.8903C24.7808 13.091 21.6898 10 17.8903 10C14.091 10 11 13.091 11 16.8903V52.1095C11 55.909 14.091 59 17.8904 59C17.8919 59 17.8933 58.9999 17.8947 58.9999V59L60 58.8905V56.0171H55.8296V52.8026H60V49.9291H55.8296V46.7144H60V43.8409H55.8296V40.6262H60V37.7528H55.8296V34.5382H60V31.6647H55.8296V28.45H60V25.5766H55.8296V22.362H60ZM13.8735 42.9405C14.994 41.9861 16.4 41.4654 17.8904 41.4654C19.3788 41.4654 20.7864 41.987 21.9073 42.9413V46.5164C20.7755 45.7013 19.3886 45.2191 17.8904 45.2191C16.3922 45.2191 15.0053 45.7013 13.8735 46.5165V42.9405ZM28.9461 39.1896C28.9461 39.1896 25.2182 42.57 24.7807 42.8407V35.5384C25.2183 35.8092 28.9461 39.1896 28.9461 39.1896ZM27.9582 44.0185L33.1768 39.1896L27.9582 34.3606C27.9484 34.3514 27.938 34.3426 27.9281 34.3335H29.6609C31.6891 34.3335 33.6259 35.0921 35.1146 36.4696L38.054 39.1896L35.1146 41.9095C33.6259 43.2871 31.6891 44.0457 29.6609 44.0457H27.9281C27.938 44.0365 27.9483 44.0277 27.9582 44.0185ZM24.7808 50.1757V46.9191H29.6609C32.4148 46.9191 35.0447 45.889 37.0662 44.0185L42.2849 39.1896L37.0662 34.3606C35.0448 32.4901 32.4149 31.4601 29.6609 31.4601H24.7808V28.2035H42.1358C42.6967 30.7991 44.7452 32.8476 47.3408 33.4085V44.9707C44.7451 45.5316 42.6967 47.5801 42.1358 50.1757H24.7808ZM17.8903 12.8735C20.1053 12.8735 21.9073 14.6755 21.9073 16.8904V17.7089C20.7755 16.8937 19.3886 16.4115 17.8903 16.4115C16.3921 16.4115 15.0052 16.8937 13.8734 17.7089V16.8904C13.8735 14.6754 15.6754 12.8735 17.8903 12.8735ZM17.8903 19.2849C20.1053 19.2849 21.9073 21.0869 21.9073 23.3019V39.5238C20.6735 38.9144 19.3068 38.5919 17.8904 38.5919C16.4724 38.5919 15.1064 38.9141 13.8735 39.5232V23.3019C13.8735 21.0869 15.6754 19.2849 17.8903 19.2849ZM13.8735 52.1096C13.8735 49.8946 15.6755 48.0926 17.8904 48.0926C20.1054 48.0926 21.9074 49.8946 21.9074 52.1096C21.9074 54.3243 20.1057 56.1262 17.891 56.1266H17.89C15.6752 56.1263 13.8735 54.3244 13.8735 52.1096ZM52.9562 56.0213L23.4955 56.1098C24.1306 55.2224 24.5603 54.1793 24.7151 53.0492H44.8563V51.6125C44.8563 49.4504 46.6153 47.6913 48.7775 47.6913H50.2142V30.6879H48.7775C46.6153 30.6879 44.8563 28.9288 44.8563 26.7667V25.33H24.7807V22.362H52.9562V56.0213Z" fill="black"/>
</g>
<defs>
<clipPath id="clip0">
<rect width="49" height="49" fill="white" transform="translate(11 10)"/>
</clipPath>
</defs>
</svg>
